<?xml version="1.0" encoding="utf-8"?>
<!-- Generator: Adobe Illustrator 24.0.0, SVG Export Plug-In . SVG Version: 6.00 Build 0)  -->
<svg version="1.1" id="Layer_1" xmlns="http://www.w3.org/2000/svg" xmlns:xlink="http://www.w3.org/1999/xlink" x="0px" y="0px"
	 viewBox="0 0 673.4 206.6" style="enable-background:new 0 0 673.4 206.6;" xml:space="preserve">
<style type="text/css">
	.st0{opacity:0.8;}
	.st1{fill-rule:evenodd;clip-rule:evenodd;fill:#FFFFFF;}
	.st2{opacity:0.3;}
	.st3{fill:#FFFFFF;}
	.st4{opacity:0.4;}
	.st5{opacity:0.1;}
	.st6{fill:#001689;}
	.st7{opacity:0.2;}
	.st8{fill:#292734;}
</style>
<g class="st0">
	<path class="st1" d="M142.3,165.7c26.3-18,39.8-51.3,31.1-83.8c-11-41.2-53.4-65.7-94.7-54.7c-33.7,9-56.2,39-57.3,72.1
		c4.7-27.2,24.6-50.6,53-58.2c38.9-10.4,78.9,12.7,89.3,51.6C171.1,120.1,161.9,147.9,142.3,165.7L142.3,165.7z"/>
</g>
<g>
	<g class="st2">
		<polygon class="st3" points="95.7,179.3 77,174.4 83.3,20.1 93.4,20.1 		"/>
	</g>
	<g class="st2">
		<polygon class="st3" points="91.6,4.7 91.6,4.7 83.3,20.1 93.4,20.1 		"/>
	</g>
	<g>
		<polygon class="st3" points="95.7,179.3 104.6,169.4 98.2,20.1 93.4,20.1 		"/>
	</g>
	<g>
		<polygon class="st3" points="91.6,4.7 91.6,4.7 98.2,20.1 93.4,20.1 		"/>
	</g>
</g>
<g class="st4">
	<path class="st1" d="M40,39.4C8.7,60.7-7.2,100.1,3.1,138.7c13.1,48.9,63.3,77.9,112.2,64.8c39.9-10.7,66.6-46.2,67.9-85.5
		c-5.5,32.2-29.2,59.9-62.8,68.9c-46.1,12.4-93.5-15-105.9-61.1C5.8,93.4,16.7,60.4,40,39.4L40,39.4z"/>
</g>
<g>
	<polygon class="st3" points="75.2,175.3 81.5,19 91.8,0 100,19.1 106.4,169.6 96.3,181 	"/>
</g>
<g>
	<polygon class="st3" points="76.4,174.4 82.7,19.3 91.7,2.7 98.8,19.4 105.2,169.2 95.9,179.7 	"/>
</g>
<g>
	<polygon class="st3" points="98.2,19.5 91.6,4.1 83.3,19.5 77,173.9 95.7,179 104.6,169 	"/>
</g>
<g>
	<g class="st5">
		<polygon class="st6" points="95.7,179.3 77,174.4 83.3,20.1 93.4,20.1 		"/>
	</g>
	<g class="st7">
		<polygon class="st6" points="91.6,4.7 91.6,4.7 83.3,20.1 93.4,20.1 		"/>
	</g>
	<g>
		<polygon class="st8" points="95.7,179.3 104.6,169.4 98.2,20.1 93.4,20.1 		"/>
	</g>
	<g>
		<polygon class="st6" points="91.6,4.7 91.6,4.7 98.2,20.1 93.4,20.1 		"/>
	</g>
</g>
<g>
	<path class="st3" d="M212.2,95.4c1.7,2.2,3.6,3.2,5.7,3.2c1.2,0,2.2-0.2,3-0.7c0.8-0.5,1.2-1.2,1.2-2.1c-0.1-0.8-0.5-1.5-1.4-1.9
		l-6.1-1.5c-1.9-0.6-3.4-1.5-4.5-2.8c-1.1-1.3-1.7-2.7-1.7-4.3c0-2.6,0.9-4.7,2.7-6.3c1.8-1.6,4-2.4,6.4-2.4c3.7,0,6.8,1.4,9.2,4.1
		l-4.3,3.4c-1.2-1.3-2.8-2-4.7-2c-1.3,0-2.2,0.3-2.9,0.8s-1,1.1-1,1.9c0,1,0.7,1.9,2.1,2.5l6.1,1.4c3.6,1.4,5.4,3.7,5.4,7.1
		c0,2.2-0.8,4.2-2.5,5.8c-1.7,1.7-4.1,2.5-7.2,2.5c-4.3,0-7.7-1.9-10.2-5.6L212.2,95.4z"/>
	<path class="st3" d="M246.2,77.5V83h-6.3v20.4h-5.5V83h-6.3v-5.5H246.2z"/>
	<path class="st3" d="M254.8,97.9v5.5h-5.5V77.5h9.4c2.8,0,5.2,1,7.2,3c2,2,3,4.4,3,7.2s-1,5.2-3,7.2c-0.4,0.4-0.8,0.8-1.3,1.1
		l4.3,7.4h-6.3l-3.2-5.5c-0.2,0-0.5,0-0.7,0H254.8z M254.8,83v9.4h3.9c1.3,0,2.4-0.5,3.3-1.4c0.9-0.9,1.4-2,1.4-3.3
		c0-1.3-0.5-2.4-1.4-3.3c-0.9-0.9-2-1.4-3.3-1.4H254.8z"/>
	<path class="st3" d="M273.6,93.2V77.5h5.5v15.7c0,1.5,0.5,2.8,1.6,3.9c1.1,1.1,2.4,1.6,3.9,1.6c1.5,0,2.8-0.5,3.9-1.6
		c1.1-1.1,1.6-2.4,1.6-3.9V77.5h5.5v15.7c0,3-1.1,5.6-3.2,7.8c-2.1,2.1-4.7,3.2-7.8,3.2s-5.6-1.1-7.8-3.2
		C274.7,98.8,273.6,96.2,273.6,93.2z"/>
	<path class="st3" d="M322.9,100.1c-2.7,2.7-5.9,4-9.7,4c-3.8,0-7-1.3-9.7-4c-2.7-2.7-4-5.9-4-9.7c0-3.8,1.3-7,4-9.7
		c2.7-2.7,5.9-4,9.7-4c3.8,0,7,1.3,9.7,4l-3.9,3.9c-1.6-1.6-3.5-2.4-5.8-2.4c-2.3,0-4.2,0.8-5.8,2.4c-1.6,1.6-2.4,3.5-2.4,5.8
		c0,2.3,0.8,4.2,2.4,5.8c1.6,1.6,3.6,2.4,5.8,2.4c2.3,0,4.2-0.8,5.8-2.4L322.9,100.1z"/>
	<path class="st3" d="M341.8,77.5V83h-6.3v20.4H330V83h-6.3v-5.5H341.8z"/>
	<path class="st3" d="M344.1,93.2V77.5h5.5v15.7c0,1.5,0.5,2.8,1.6,3.9c1.1,1.1,2.4,1.6,3.9,1.6c1.5,0,2.8-0.5,3.9-1.6
		c1.1-1.1,1.6-2.4,1.6-3.9V77.5h5.5v15.7c0,3-1.1,5.6-3.2,7.8s-4.7,3.2-7.8,3.2c-3,0-5.6-1.1-7.8-3.2
		C345.2,98.8,344.1,96.2,344.1,93.2z"/>
	<path class="st3" d="M377.1,97.9v5.5h-5.5V77.5h9.4c2.8,0,5.2,1,7.2,3c2,2,3,4.4,3,7.2s-1,5.2-3,7.2c-0.4,0.4-0.8,0.8-1.3,1.1
		l4.3,7.4h-6.3l-3.2-5.5c-0.2,0-0.5,0-0.7,0H377.1z M377.1,83v9.4h3.9c1.3,0,2.4-0.5,3.3-1.4c0.9-0.9,1.4-2,1.4-3.3
		c0-1.3-0.5-2.4-1.4-3.3c-0.9-0.9-2-1.4-3.3-1.4H377.1z"/>
	<path class="st3" d="M413.9,77.5V83h-11.8v4.7h9.4v5.5h-9.4v4.7h11.8v5.5h-17.2V77.5H413.9z"/>
	<path class="st3" d="M453,100.1c-2.7,2.7-5.9,4-9.7,4c-3.8,0-7-1.3-9.7-4c-2.7-2.7-4-5.9-4-9.7c0-3.8,1.3-7,4-9.7
		c2.7-2.7,5.9-4,9.7-4c3.8,0,7,1.3,9.7,4l-3.9,3.9c-1.6-1.6-3.5-2.4-5.8-2.4c-2.3,0-4.2,0.8-5.8,2.4c-1.6,1.6-2.4,3.5-2.4,5.8
		c0,2.3,0.8,4.2,2.4,5.8c1.6,1.6,3.6,2.4,5.8,2.4c2.3,0,4.2-0.8,5.8-2.4L453,100.1z"/>
	<path class="st3" d="M476.5,80.7c2.7,2.7,4,5.9,4,9.7c0,3.8-1.3,7-4,9.7c-2.7,2.7-5.9,4-9.7,4c-3.8,0-7-1.3-9.7-4
		c-2.7-2.7-4-5.9-4-9.7c0-3.8,1.3-7,4-9.7c2.7-2.7,5.9-4,9.7-4C470.6,76.7,473.8,78,476.5,80.7z M466.8,82.2c-2.3,0-4.2,0.8-5.8,2.4
		c-1.6,1.6-2.4,3.5-2.4,5.8c0,2.3,0.8,4.2,2.4,5.8c1.6,1.6,3.6,2.4,5.8,2.4c2.3,0,4.2-0.8,5.8-2.4c1.6-1.6,2.4-3.6,2.4-5.8
		c0-2.3-0.8-4.2-2.4-5.8C471,83,469.1,82.2,466.8,82.2z"/>
	<path class="st3" d="M489.5,77.5l8.7,11.6l8.7-11.6h4.2v25.9h-5.5v-15l-6.2,8.3h-2.5l-6.2-8.3v15.1h-5.5V77.5H489.5z"/>
	<path class="st3" d="M522.9,97.9v5.5h-5.5V77.5h9.4c2.8,0,5.2,1,7.2,3c2,2,3,4.4,3,7.2s-1,5.2-3,7.2c-2,2-4.4,3-7.2,3H522.9z
		 M522.9,83v9.4h3.9c1.3,0,2.4-0.5,3.3-1.4c0.9-0.9,1.4-2,1.4-3.3c0-1.3-0.5-2.4-1.4-3.3c-0.9-0.9-2-1.4-3.3-1.4H522.9z"/>
	<path class="st3" d="M541.7,77.5h5.5v20.4h11v5.5h-16.5V77.5z"/>
	<path class="st3" d="M567.5,77.5v25.9h-5.5V77.5H567.5z"/>
	<path class="st3" d="M591.8,100.2h-13.3l-1.5,3.1H571l12.2-25.9h4.1l12.2,25.9h-6.1L591.8,100.2z M589.3,94.7l-4.1-8.7l-4.1,8.7
		H589.3z"/>
	<path class="st3" d="M608.3,88.1v15.2h-5.5V77.5h4.5l11.2,15.2V77.5h5.5v25.9h-4.5L608.3,88.1z"/>
	<path class="st3" d="M652.1,100.1c-2.7,2.7-5.9,4-9.7,4c-3.8,0-7-1.3-9.7-4c-2.7-2.7-4-5.9-4-9.7c0-3.8,1.3-7,4-9.7
		c2.7-2.7,5.9-4,9.7-4c3.8,0,7,1.3,9.7,4l-3.9,3.9c-1.6-1.6-3.5-2.4-5.8-2.4c-2.3,0-4.2,0.8-5.8,2.4c-1.6,1.6-2.4,3.5-2.4,5.8
		c0,2.3,0.8,4.2,2.4,5.8c1.6,1.6,3.6,2.4,5.8,2.4c2.3,0,4.2-0.8,5.8-2.4L652.1,100.1z"/>
	<path class="st3" d="M673.4,77.5V83h-11.8v4.7h9.4v5.5h-9.4v4.7h11.8v5.5h-17.2V77.5H673.4z"/>
	<path class="st3" d="M230.2,137.8c-2.7,2.6-5.8,3.9-9.6,3.9c-3.8,0-7-1.3-9.7-4c-2.7-2.7-4-5.9-4-9.7c0-3.8,1.3-7,4-9.7
		c2.7-2.7,5.9-4,9.7-4c3.8,0,7,1.3,9.7,4l-2.8,2.8c-1.9-1.9-4.2-2.9-6.9-2.9c-2.7,0-5,1-6.9,2.9c-1.9,1.9-2.9,4.2-2.9,6.9
		c0,2.7,1,5,2.9,6.9c1.9,1.9,4.2,2.9,6.9,2.9c2.1,0,4-0.6,5.6-1.8v-6h-7v-3.9h11V137.8z"/>
	<path class="st3" d="M247.4,134.5c-0.5,0.1-1.1,0.1-1.6,0.1h-5.9v6.3h-3.9v-25.8h9.8c2.7,0,5,1,6.9,2.9c1.9,1.9,2.9,4.2,2.9,6.9
		c0,2.7-1,5-2.9,6.9c-0.5,0.5-1.1,1-1.7,1.3l3.9,7.8h-4.4L247.4,134.5z M239.9,130.8h5.9c1.6,0,3-0.6,4.1-1.7
		c1.1-1.1,1.7-2.5,1.7-4.2c0-1.6-0.6-3-1.7-4.1c-1.1-1.1-2.5-1.7-4.1-1.7h-5.9V130.8z"/>
	<path class="st3" d="M282.8,118.3c2.7,2.7,4,5.9,4,9.7c0,3.8-1.3,7-4,9.7c-2.7,2.7-5.9,4-9.7,4c-3.8,0-7-1.3-9.7-4
		c-2.7-2.7-4-5.9-4-9.7c0-3.8,1.3-7,4-9.7c2.7-2.7,5.9-4,9.7-4C276.9,114.3,280.2,115.6,282.8,118.3z M273.2,118.2
		c-2.7,0-5,1-6.9,2.9c-1.9,1.9-2.9,4.2-2.9,6.9c0,2.7,1,5,2.9,6.9c1.9,1.9,4.2,2.9,6.9,2.9c2.7,0,5-1,6.9-2.9s2.9-4.2,2.9-6.9
		c0-2.7-1-5-2.9-6.9C278.2,119.2,275.9,118.2,273.2,118.2z"/>
	<path class="st3" d="M290.8,131.1v-16h3.9v16c0,1.9,0.6,3.4,1.9,4.7c1.3,1.3,2.9,1.9,4.7,1.9c1.8,0,3.4-0.6,4.7-1.9
		c1.3-1.3,1.9-2.9,1.9-4.7v-16h3.9v16c0,2.9-1,5.4-3.1,7.5c-2.1,2.1-4.6,3.1-7.5,3.1c-2.9,0-5.4-1-7.5-3.1
		C291.8,136.5,290.8,134.1,290.8,131.1z"/>
	<path class="st3" d="M327.2,115.1c2.7,0,5,1,6.9,2.9c1.9,1.9,2.9,4.2,2.9,6.9c0,2.7-1,5-2.9,6.9c-1.9,1.9-4.2,2.9-6.9,2.9h-5.9v6.3
		h-3.9v-25.8H327.2z M321.3,130.8h5.9c1.6,0,3-0.6,4.1-1.7c1.1-1.1,1.7-2.5,1.7-4.2c0-1.6-0.6-3-1.7-4.1c-1.1-1.1-2.5-1.7-4.1-1.7
		h-5.9V130.8z"/>
	<path class="st3" d="M353,124.6h2.5v13.9h7.4v2.5H353V124.6z"/>
	<path class="st3" d="M364.4,124.6h2.5v13.9h7.4v2.5h-9.9V124.6z"/>
	<path class="st3" d="M386.8,137.3l1.8,1.7c-1.7,1.6-3.7,2.5-6,2.5c-2.4,0-4.4-0.8-6.1-2.5s-2.5-3.7-2.5-6.1c0-2.4,0.8-4.4,2.5-6.1
		c1.7-1.7,3.7-2.5,6.1-2.5c2.4,0,4.4,0.8,6.1,2.5l-1.8,1.7c-1.2-1.2-2.7-1.8-4.4-1.8c-1.7,0-3.2,0.6-4.4,1.8
		c-1.2,1.2-1.8,2.7-1.8,4.4c0,1.7,0.6,3.2,1.8,4.4c1.2,1.2,2.7,1.8,4.4,1.8C384.2,139,385.6,138.4,386.8,137.3z"/>
	<path class="st3" d="M393.6,138.5v2.5h-2.5v-2.5H393.6z"/>
</g>
</svg>
