<svg width="479" height="479" viewBox="0 0 479 479" fill="none" xmlns="http://www.w3.org/2000/svg">
<g clip-path="url(#clip0_4_2)">
<path d="M371.973 270.934L284.406 224.531H194.594L107.027 270.934C82.3281 283.658 67.3594 309.105 67.3594 336.797V456.547H411.641V336.797C411.641 309.105 396.672 283.658 371.973 270.934Z" fill="#06C15A"/>
<path d="M157.172 381.703H142.203V456.547H157.172V381.703Z" fill="#0BA84E"/>
<path d="M336.797 381.703H321.828V456.547H336.797V381.703Z" fill="#0BA84E"/>
<path d="M217.047 321.828H202.078V411.641H217.047V321.828Z" fill="#0BA84E"/>
<path d="M224.531 404.156H194.594V419.125H224.531V404.156Z" fill="#0BA84E"/>
<path d="M239.5 321.828L213.305 311.35C184.116 299.375 164.656 271.683 164.656 240.248L107.027 270.934C103.284 272.431 100.291 274.677 97.2969 276.922C116.008 304.614 147.442 321.828 181.122 321.828H239.5Z" fill="#0BA84E"/>
<path d="M381.703 276.922C362.992 304.614 331.558 321.828 297.878 321.828H239.5L265.695 311.35C294.884 299.375 313.595 271.683 314.344 240.248L371.973 270.934C375.716 272.431 378.709 274.677 381.703 276.922Z" fill="#0BA84E"/>
<path d="M276.922 321.828H261.953V411.641H276.922V321.828Z" fill="#0BA84E"/>
<path d="M284.406 404.156H254.469V419.125H284.406V404.156Z" fill="#0BA84E"/>
<path d="M213.305 311.35L239.5 321.828L265.695 311.35C294.884 299.375 313.595 271.683 314.344 240.248L284.406 224.531H194.594L164.656 240.248C165.405 271.683 184.116 299.375 213.305 311.35ZM350.269 124.241C346.527 117.505 339.042 114.511 332.306 116.756L321.828 119.75V164.656L340.539 160.166C347.275 158.669 351.766 152.681 351.766 145.945V130.977C351.766 128.731 351.017 126.486 350.269 124.241ZM146.694 116.008C139.958 113.763 131.725 116.756 128.731 123.492C127.983 125.738 127.234 127.983 127.234 130.228V145.197C127.234 151.933 131.725 157.92 138.461 159.417L157.172 164.656V119.75L146.694 116.008Z" fill="#EAA28C"/>
<path d="M157.172 89.8125V161.663C157.172 190.852 174.386 217.795 201.33 229.77L208.814 233.513C228.273 242.494 250.727 242.494 270.934 233.513L278.419 229.77C305.363 217.795 322.577 190.852 322.577 161.663V89.8125H157.172Z" fill="#F7B49A"/>
<path d="M157.172 89.8125V57.6297C157.172 41.9125 169.147 29.1891 184.116 27.6922L239.5 22.4531L294.884 27.6922C310.602 29.1891 321.828 41.9125 321.828 57.6297V89.8125C321.828 107.775 309.853 122.744 292.639 127.983C257.462 137.713 220.789 137.713 186.361 127.983C169.147 122.744 157.172 107.775 157.172 89.8125Z" fill="#0F73EA"/>
<path d="M261.953 52.3906H217.047V67.3594H261.953V52.3906Z" fill="#4398ED"/>
<path d="M186.361 127.983C202.827 132.473 220.041 134.719 236.506 134.719H242.494C259.708 134.719 276.173 132.473 292.639 127.983C309.853 123.492 321.828 107.775 321.828 89.8125H157.172C157.172 107.775 169.147 122.744 186.361 127.983Z" fill="#055BD6"/>
<path d="M426.609 269.438H276.922V456.547H426.609V269.438Z" fill="#F4A422"/>
<path d="M321.828 434.094C309.105 434.094 299.375 424.364 299.375 411.641C299.375 398.917 309.105 389.188 321.828 389.188C334.552 389.188 344.281 398.917 344.281 411.641C344.281 424.364 334.552 434.094 321.828 434.094ZM321.828 404.156C317.337 404.156 314.344 407.15 314.344 411.641C314.344 416.131 317.337 419.125 321.828 419.125C326.319 419.125 329.312 416.131 329.312 411.641C329.312 407.15 326.319 404.156 321.828 404.156Z" fill="#F9E310"/>
<path d="M372.177 294.233L361.592 304.818L391.759 334.983L402.343 324.399L372.177 294.233Z" fill="#F9E310"/>
<path d="M391.758 293.704L361.593 323.87L372.177 334.454L402.343 304.288L391.758 293.704Z" fill="#F9E310"/>
<path d="M359.25 426.609V411.641C371.973 411.641 381.703 401.911 381.703 389.188V351.766H396.672V389.188C396.672 410.144 380.206 426.609 359.25 426.609Z" fill="#F4C167"/>
<path d="M321.828 336.797C309.105 336.797 299.375 327.067 299.375 314.344C299.375 301.62 309.105 291.891 321.828 291.891C334.552 291.891 344.281 301.62 344.281 314.344C344.281 327.067 334.552 336.797 321.828 336.797ZM321.828 306.859C317.337 306.859 314.344 309.853 314.344 314.344C314.344 318.834 317.337 321.828 321.828 321.828C326.319 321.828 329.312 318.834 329.312 314.344C329.312 309.853 326.319 306.859 321.828 306.859Z" fill="#F9E310"/>
<path d="M353.016 355.081L338.071 377.5L350.526 385.803L365.471 363.383L353.016 355.081Z" fill="#F4C167"/>
<path d="M329.312 351.766H314.344V381.703H329.312V351.766Z" fill="#F4C167"/>
<path d="M261.953 52.3906H217.047V67.3594H261.953V52.3906Z" fill="black"/>
<path d="M369.728 261.953L299.375 224.531C315.092 211.059 325.57 191.6 327.816 170.644L341.287 166.902C351.017 164.656 358.502 155.675 358.502 145.197V130.228C358.502 126.486 357.753 123.492 356.256 119.75C351.017 110.02 339.791 104.781 329.312 108.523V56.1328C329.312 36.6734 314.344 20.2078 295.633 18.7109L239.5 14.9688L183.367 20.2078C164.656 21.7047 149.688 38.1703 149.688 57.6297V110.02C137.712 106.278 124.989 113.014 121.247 124.241C120.498 126.486 120.498 128.731 120.498 130.977V145.945C120.498 156.423 127.234 165.405 137.712 167.65L151.184 171.392C153.43 192.348 163.908 211.808 179.625 225.28L104.033 264.947C76.3406 278.419 59.875 306.111 59.875 336.797V464.031H434.094V261.953H369.728ZM334.552 123.492C338.294 121.995 342.036 124.241 343.533 127.234C344.281 127.983 344.281 129.48 344.281 130.228V145.197C344.281 148.939 342.036 151.933 338.294 152.681L329.312 154.927V124.989L334.552 123.492ZM164.656 57.6297C164.656 45.6547 173.638 35.925 184.864 35.1766L239.5 29.9375L294.136 35.1766C305.362 35.925 314.344 45.6547 314.344 57.6297V82.3281H164.656V57.6297ZM313.595 97.2969C310.602 108.523 302.369 117.505 291.142 120.498C257.463 129.48 222.286 129.48 188.606 120.498C177.38 117.505 169.147 108.523 166.153 97.2969H313.595V97.2969ZM134.719 145.197V130.228C134.719 128.731 134.719 127.983 135.467 126.486C136.964 123.492 140.706 121.247 144.448 122.744L149.688 124.241V154.178L140.706 151.933C136.964 151.933 134.719 148.939 134.719 145.197ZM164.656 161.663V124.241C169.895 129.48 176.631 133.222 184.116 135.467C202.078 140.706 220.789 142.952 239.5 142.952C258.211 142.952 276.922 140.706 294.884 135.467C302.369 133.222 309.105 129.48 314.344 124.241V161.663C314.344 187.858 298.627 211.808 274.677 223.034L267.192 226.777C249.23 235.009 229.022 235.009 211.808 226.777L204.323 223.034C180.373 211.808 164.656 187.858 164.656 161.663ZM197.587 236.506L205.072 240.248C226.777 249.978 251.475 249.978 273.18 240.248L280.664 236.506C282.161 235.758 283.658 235.009 285.903 234.261L339.042 262.702H269.438V299.375C265.695 301.62 261.953 303.866 258.211 306.111L239.5 313.595L216.298 304.614C191.6 294.884 174.386 271.683 172.889 244.739L193.097 234.261C194.594 235.009 196.091 235.758 197.587 236.506ZM157.92 252.223C161.663 278.419 178.128 301.62 202.078 314.344H181.122C152.681 314.344 125.737 301.62 107.775 279.167C108.523 278.419 109.272 278.419 110.02 277.67L157.92 252.223ZM157.172 449.062V381.703H142.203V449.062H74.8438V336.797C74.8438 318.086 82.3281 300.123 96.5484 287.4C116.756 314.344 148.191 329.312 181.122 329.312H202.078V404.156H194.594V419.125H224.531V404.156H217.047V329.312H238.003L239.5 330.061L263.45 319.583C265.695 318.834 267.192 317.337 268.689 316.589V449.062H157.172ZM419.125 449.062H284.406V276.922H419.125V449.062Z" fill="black"/>
<path d="M321.828 434.094C334.552 434.094 344.281 424.364 344.281 411.641C344.281 398.917 334.552 389.188 321.828 389.188C309.105 389.188 299.375 398.917 299.375 411.641C299.375 424.364 309.105 434.094 321.828 434.094ZM321.828 404.156C326.319 404.156 329.312 407.15 329.312 411.641C329.312 416.131 326.319 419.125 321.828 419.125C317.337 419.125 314.344 416.131 314.344 411.641C314.344 407.15 317.337 404.156 321.828 404.156Z" fill="black"/>
<path d="M371.973 334.552L381.703 324.822L391.433 334.552L401.911 324.073L392.181 314.344L401.911 304.614L391.433 294.136L381.703 303.866L371.973 294.136L361.495 304.614L371.225 314.344L361.495 324.073L371.973 334.552Z" fill="black"/>
<path d="M381.703 389.188C381.703 401.911 371.973 411.641 359.25 411.641V426.609C380.206 426.609 396.672 410.144 396.672 389.188V351.766H381.703V389.188ZM321.828 336.797C334.552 336.797 344.281 327.067 344.281 314.344C344.281 301.62 334.552 291.891 321.828 291.891C309.105 291.891 299.375 301.62 299.375 314.344C299.375 327.067 309.105 336.797 321.828 336.797ZM321.828 306.859C326.319 306.859 329.312 309.853 329.312 314.344C329.312 318.834 326.319 321.828 321.828 321.828C317.337 321.828 314.344 318.834 314.344 314.344C314.344 309.853 317.337 306.859 321.828 306.859Z" fill="black"/>
<path d="M353.016 355.081L338.071 377.5L350.526 385.803L365.471 363.383L353.016 355.081Z" fill="black"/>
<path d="M329.312 351.766H314.344V381.703H329.312V351.766Z" fill="black"/>
</g>
<defs>
<clipPath id="clip0_4_2">
<rect width="479" height="479" fill="white"/>
</clipPath>
</defs>
</svg>
