<svg width="479" height="479" viewBox="0 0 479 479" fill="none" xmlns="http://www.w3.org/2000/svg">
<g clip-path="url(#clip0_4_34)">
<path d="M295.221 246.685L251.774 282.947C250.442 284.499 249.368 286.255 248.593 288.148H230.406C229.632 286.255 228.558 284.499 227.226 282.947L184.452 247.246C186.164 244.296 187.701 241.247 189.055 238.115C203.249 248.599 220.395 254.324 238.041 254.469C255.348 254.54 272.13 248.526 285.454 237.479C286.764 236.394 288.036 235.271 289.308 234.149C290.945 238.477 292.922 242.669 295.221 246.685V246.685Z" fill="white"/>
<path opacity="0.2" d="M305.886 258.248L298.552 264.498C295 259.458 292.025 254.035 289.683 248.332C289.514 248.447 289.351 248.572 289.196 248.706C274.936 260.027 257.181 266.033 238.976 265.695C220.995 265.683 203.386 260.57 188.195 250.951C186.063 255.702 183.482 260.239 180.486 264.498L173.151 258.248C179.461 251.789 184.556 244.247 188.195 235.982C202.218 244.852 218.319 249.897 234.897 250.614C236.244 250.689 237.629 250.727 238.976 250.727C240.099 250.727 241.259 250.689 242.381 250.652C243.167 250.614 243.991 250.577 244.776 250.502C260.981 249.742 276.53 243.873 289.196 233.737C289.351 233.603 289.514 233.478 289.683 233.363C293.417 242.631 298.921 251.084 305.886 258.248Z" fill="#676868"/>
<path d="M301.508 106.652C288.387 111.27 274.59 113.672 260.681 113.762C238.452 113.762 220.115 106.989 206.195 93.6295C203.414 90.9684 199.715 89.4807 195.866 89.4757C194.158 89.4817 192.464 89.7726 190.852 90.3364C188.232 91.265 185.923 92.9055 184.185 95.0738C182.446 97.242 181.347 99.8521 181.01 102.611L180.037 110.357L175.284 107.027C172.622 105.146 169.416 104.189 166.158 104.304C162.9 104.419 159.77 105.599 157.247 107.663C153.606 110.699 150.418 114.24 147.779 118.178C143.999 90.5235 144.561 56.395 162.336 50.4447C165.421 49.4083 168.087 47.3993 169.933 44.7191C177.073 35.5003 186.22 28.0298 196.679 22.8748C207.138 17.7199 218.634 15.0161 230.294 14.9688C244.063 15.2267 257.635 18.2824 270.186 23.95C270.298 23.9874 270.41 24.0623 270.523 24.0997C274.789 25.8211 312.922 40.8273 338.631 40.8273H339.342C343.046 60.7731 340.876 90.8603 301.508 106.652Z" fill="#552300"/>
<path opacity="0.3" d="M347.848 55.5153C343.287 55.5153 338.631 55.796 338.631 55.796C312.922 55.796 274.789 40.79 270.523 39.0684C270.41 39.031 270.298 38.9562 270.186 38.9187C257.635 33.251 244.063 30.1954 230.294 29.9375C218.634 29.9848 207.138 32.6886 196.679 37.8435C186.22 42.9985 177.073 50.4691 169.933 59.6879C168.087 62.368 165.421 64.377 162.336 65.4134C151.521 69.0433 147.105 83.0765 146.095 99.7667C145.047 77.1265 148.378 51.3802 162.336 46.7025C165.421 45.6661 168.087 43.6571 169.933 40.9769C176.909 31.9677 185.805 24.6264 195.975 19.4866C206.144 14.3469 217.331 11.5379 228.722 11.264C228.835 11.2265 270.41 20.3201 270.523 20.3575C274.489 21.9666 308.057 35.1391 333.466 36.8605C334.402 36.9354 343.084 40.8273 343.084 40.8273C344.244 47.0019 348.746 48.1432 347.848 55.5153Z" fill="#A7907F"/>
<path d="M315.654 271.907L278.681 324.71L264.198 300.947L263.6 299.974L262.889 299.113C262.328 298.281 262.003 297.312 261.951 296.31C261.898 295.309 262.119 294.311 262.589 293.425L302.369 260.194L307.87 266.257L309.18 267.716L310.826 268.764L315.654 271.907Z" fill="#D68751"/>
<path d="M253.87 312.735L248.893 321.828H230.856L225.429 312.248L227.562 308.73C228.942 307.059 230.018 305.159 230.743 303.117H248.257C248.982 305.159 250.058 307.059 251.438 308.73L253.87 312.735Z" fill="#E1EBF4"/>
<path d="M216.111 299.113L215.4 299.974L214.802 300.947L200.319 324.71L163.346 271.907L168.174 268.764L169.82 267.716L171.13 266.257L176.631 260.194L216.411 293.425C216.881 294.311 217.102 295.309 217.049 296.31C216.997 297.312 216.672 298.281 216.111 299.113V299.113Z" fill="#D68751"/>
<path d="M260.643 420.173L242.756 433.794C242.36 433.988 241.924 434.089 241.483 434.089C241.042 434.089 240.607 433.988 240.211 433.794L222.323 420.173C221.805 419.664 221.404 419.05 221.145 418.372C220.887 417.694 220.778 416.968 220.827 416.244L237.292 336.797H242.082L261.916 416.655C261.96 417.298 261.869 417.942 261.65 418.548C261.431 419.154 261.088 419.707 260.643 420.173Z" fill="#E1EBF4"/>
<path d="M436.189 447.828C435.557 452.234 433.39 456.275 430.07 459.239C426.749 462.204 422.489 463.901 418.04 464.031H61.9706C57.423 463.913 53.0581 462.217 49.6239 459.233C46.1897 456.249 43.9001 452.164 43.1474 447.678C40.2056 419.02 40.5194 390.12 44.083 361.533L44.1952 360.897L44.2327 360.26C48.4239 294.772 138.947 279.242 139.846 279.092L139.995 279.055H140.108C142.977 278.503 145.813 277.791 148.602 276.922L190.702 337.096C191.384 339.08 192.635 340.819 194.299 342.096C195.962 343.374 197.965 344.134 200.057 344.281C201.776 344.181 203.452 343.703 204.966 342.882C206.479 342.06 207.793 340.915 208.814 339.529L216.523 326.88L222.024 336.647L206.195 413.137C205.546 416.638 205.862 420.25 207.108 423.585C208.353 426.92 210.483 429.854 213.267 432.073L231.155 445.695C234.154 447.883 237.771 449.063 241.483 449.063C245.196 449.063 248.813 447.883 251.812 445.695L269.699 432.073C272.486 429.833 274.593 426.86 275.783 423.489C276.973 420.117 277.199 416.481 276.435 412.988L257.5 336.797H257.762L262.851 327.479L270.186 339.529C271.207 340.915 272.521 342.06 274.034 342.882C275.548 343.703 277.224 344.181 278.943 344.281C281.035 344.134 283.038 343.374 284.701 342.096C286.365 340.819 287.616 339.08 288.298 337.096L330.585 276.66C333.617 277.678 336.719 278.478 339.865 279.055H340.015L340.165 279.092C341.063 279.242 431.549 294.473 435.778 360.26V360.522L435.815 360.747C438.293 389.716 438.418 418.838 436.189 447.828V447.828Z" fill="#DEACBD"/>
<path d="M333.055 108.187C333.015 118.188 331.656 128.141 329.013 137.787C318.984 174.311 299.637 206.456 275.949 225.916C265.294 234.745 251.878 239.553 238.041 239.5C228.129 239.384 218.357 237.15 209.379 232.948C200.401 228.747 192.426 222.674 185.987 215.138C171.354 197.736 160.405 177.545 153.804 155.787C152.691 149.108 153.288 142.255 155.539 135.868C157.79 129.482 161.622 123.769 166.677 119.264L186.81 133.446C187.655 134.224 188.735 134.697 189.879 134.794C191.525 134.794 192.61 133.334 192.61 130.677L195.866 104.444C215.662 123.455 239.874 128.731 260.681 128.731C276.463 128.67 292.119 125.911 306.972 120.573C316.428 116.953 325.208 111.766 332.942 105.23C332.98 106.203 333.055 107.176 333.055 108.187Z" fill="#F7B49A"/>
<path opacity="0.3" d="M437.761 416.206C437.462 393.192 435.853 375.978 435.815 375.716L435.778 375.491V375.229C431.549 309.441 341.063 294.211 340.165 294.061L340.015 294.024L321.641 289.421L326.272 270.373C329.191 271.346 358.19 273.885 358.19 273.885C359.088 274.034 435.634 293.93 439.863 359.718C439.863 359.718 438.21 386.081 437.761 416.206ZM151.325 271.426L159.452 289.844C159.452 289.844 143.101 293.462 140.108 294.024L139.846 294.061C138.947 294.211 48.4239 309.741 44.2327 375.229C42.464 388.783 41.4644 402.426 41.2389 416.094C40.6776 384.772 41.1753 360.029 41.1753 360.029C45.3665 294.541 134.288 274.499 135.187 274.349C135.187 274.349 148.63 272.249 151.325 271.426Z" fill="#F4EAEE"/>
<path opacity="0.5" d="M260.643 420.173L242.756 433.794C242.368 434.012 241.927 434.116 241.483 434.094H241.446C241.014 434.111 240.587 434.007 240.211 433.794L222.323 420.173C221.805 419.664 221.404 419.05 221.145 418.372C220.887 417.694 220.778 416.968 220.826 416.244L222.997 405.728L240.211 418.826C240.607 419.02 241.042 419.12 241.483 419.12C241.924 419.12 242.36 419.02 242.756 418.826L259.334 406.214L261.916 416.655C261.959 417.298 261.869 417.942 261.65 418.548C261.431 419.154 261.088 419.707 260.643 420.173Z" fill="#9FA5AA"/>
<path opacity="0.5" d="M436.189 447.828C435.557 452.234 433.39 456.275 430.07 459.239C426.749 462.204 422.489 463.901 418.04 464.031H61.9706C57.4229 463.913 53.058 462.217 49.6238 459.233C46.1896 456.249 43.9 452.164 43.1474 447.678C41.5501 432.327 40.9127 416.892 41.2389 401.462C41.426 411.229 41.9873 421.782 43.1474 432.709C43.9 437.196 46.1896 441.281 49.6238 444.264C53.058 447.248 57.4229 448.944 61.9706 449.062H418.04C422.489 448.932 426.749 447.235 430.07 444.271C433.39 441.306 435.557 437.265 436.189 432.859C437.2 422.231 437.649 411.454 437.761 401.237C438.067 416.784 437.543 432.337 436.189 447.828V447.828Z" fill="#7F656F"/>
<path opacity="0.4" d="M216.111 299.113L215.4 299.974L214.802 300.947L200.319 324.71L163.346 271.907L168.174 268.764L169.82 267.716L170.419 267.043L200.319 309.741L212.332 290.02L216.411 293.425C216.881 294.311 217.102 295.309 217.049 296.31C216.997 297.312 216.672 298.281 216.111 299.113V299.113ZM315.654 271.907L278.681 324.71L264.198 300.947L263.6 299.974L262.889 299.113C262.328 298.281 262.003 297.312 261.951 296.31C261.898 295.309 262.119 294.311 262.589 293.425L266.668 290.02L278.681 309.741L308.581 267.043L309.18 267.716L310.826 268.764L315.654 271.907Z" fill="#72492D"/>
<path opacity="0.5" d="M253.87 312.735L248.893 321.828H230.856L225.429 312.248L227.562 308.73C228.473 307.627 229.252 306.422 229.883 305.138L230.856 306.859H248.893L249.492 305.812C250.012 306.864 250.666 307.845 251.438 308.73L253.87 312.735Z" fill="#9FA5AA"/>
<path d="M333.055 93.2179C333.047 97.4076 332.797 101.593 332.306 105.754C324.733 112.053 316.174 117.06 306.972 120.573C292.119 125.911 276.463 128.67 260.681 128.731C239.874 128.731 215.662 123.455 195.866 104.444L192.61 130.677C192.61 133.334 191.525 134.794 189.879 134.794C188.735 134.698 187.655 134.224 186.81 133.446L166.677 119.264C160.233 125.082 155.782 132.78 153.954 141.268C153.916 141.118 153.841 140.968 153.804 140.819C152.691 134.139 153.288 127.286 155.539 120.9C157.79 114.513 161.622 108.801 166.677 104.295L186.81 118.478C187.655 119.255 188.735 119.729 189.879 119.825C191.525 119.825 192.61 118.365 192.61 115.708L195.866 89.4757C211.269 103.999 231.374 112.511 252.523 113.463C253.533 113.538 254.544 113.575 255.591 113.65C257.313 113.725 258.997 113.763 260.681 113.763C262.066 113.763 263.45 113.725 264.835 113.688C266.144 113.65 267.454 113.575 268.726 113.501C269.887 113.426 271.047 113.351 272.169 113.201C284.054 112.209 295.755 109.655 306.972 105.605C316.428 101.984 325.208 96.7973 332.942 90.2616C332.98 91.2345 333.055 92.2075 333.055 93.2179Z" fill="#2D4356"/>
<path opacity="0.2" d="M333.055 108.187C333.015 118.188 331.656 128.141 329.013 137.787C318.984 174.311 299.637 206.456 275.949 225.916C266.12 234.049 253.926 238.787 241.184 239.425C240.136 239.463 239.088 239.5 238.041 239.5C236.806 239.5 235.608 239.463 234.373 239.388C225.099 238.772 216.042 236.309 207.733 232.145C199.424 227.981 192.031 222.199 185.987 215.138C171.354 197.736 160.405 177.545 153.804 155.787C152.91 150.984 152.961 146.052 153.954 141.268C160.56 162.857 171.455 182.891 185.987 200.17C192.426 207.706 200.401 213.778 209.379 217.98C218.357 222.181 228.129 224.415 238.041 224.531C251.878 224.584 265.294 219.776 275.949 210.947C299.637 191.488 318.984 159.342 329.013 122.819C330.528 117.219 331.628 111.515 332.306 105.754C332.531 105.567 332.755 105.417 332.942 105.23C332.98 106.203 333.055 107.176 333.055 108.187Z" fill="#676868"/>
<path d="M450.709 359.325C445.657 280.814 342.522 264.311 342.522 264.311C316.14 259.596 305.4 236.993 301.171 222.323C321.154 199 335.599 171.455 343.421 141.754C346.445 130.82 347.993 119.531 348.023 108.187C348.003 101.874 347.427 95.5753 346.302 89.3634C359.437 67.322 355.583 42.7358 352.439 30.9479C351.868 29.2681 350.751 27.8281 349.265 26.8581C347.779 25.888 346.011 25.4439 344.244 25.5966C343.832 25.5966 343.458 25.5966 343.046 25.634C341.579 25.7874 340.105 25.8623 338.631 25.8585C315.055 25.8585 276.099 10.2162 276.099 10.2162C263.51 5.20554 250.286 1.96877 236.806 0.598761C225.624 -0.856213 214.259 0.139804 203.5 3.51767C188.437 8.884 174.794 17.6122 163.608 29.0394C161.361 31.2366 159.342 33.6565 157.584 36.2618C133.821 44.1952 129.816 74.7689 131.238 101.526C131.089 103.733 130.977 105.941 130.977 108.187C131.834 150.964 147.267 192.166 174.723 224.98C175.509 225.878 176.294 226.739 177.118 227.6C171.916 241.895 160.839 260.119 137.488 264.311C137.488 264.311 34.3158 280.814 29.2639 359.325C25.4842 389.175 25.1577 419.362 28.2909 449.287C29.4239 457.449 33.4446 464.934 39.6237 470.386C45.8029 475.837 53.7312 478.893 61.9706 479H418.04C426.226 478.895 434.094 475.814 440.174 470.332C446.255 464.851 450.132 457.343 451.083 449.212C453.418 419.29 453.293 389.227 450.709 359.325ZM302.369 260.194L307.87 266.257L309.18 267.716L310.826 268.764L315.653 271.907L278.681 324.71L264.198 300.947L263.6 299.974L262.889 299.113C262.328 298.281 262.003 297.312 261.951 296.31C261.898 295.309 262.119 294.311 262.589 293.425L302.369 260.194ZM248.893 321.828H230.856L225.429 312.248L227.562 308.73C228.942 307.059 230.018 305.159 230.743 303.117H248.257C248.982 305.159 250.058 307.059 251.438 308.73L253.87 312.735L248.893 321.828ZM261.916 416.655C261.959 417.298 261.869 417.942 261.65 418.548C261.431 419.154 261.088 419.707 260.643 420.173L242.756 433.794C242.36 433.988 241.924 434.089 241.483 434.089C241.042 434.089 240.607 433.988 240.211 433.794L222.323 420.173C221.805 419.664 221.404 419.05 221.145 418.372C220.887 417.694 220.778 416.968 220.826 416.244L237.292 336.797H242.082L261.916 416.655ZM251.774 282.947C250.442 284.499 249.368 286.255 248.594 288.148H230.406C229.632 286.255 228.558 284.499 227.226 282.947L184.452 247.246C186.164 244.296 187.701 241.247 189.055 238.115C203.249 248.599 220.395 254.324 238.041 254.469C255.348 254.54 272.13 248.526 285.454 237.479C286.764 236.394 288.036 235.271 289.308 234.149C290.945 238.477 292.922 242.669 295.221 246.685L251.774 282.947ZM162.336 50.4447C165.421 49.4083 168.087 47.3993 169.933 44.7191C177.073 35.5003 186.22 28.0298 196.679 22.8748C207.138 17.7199 218.634 15.0161 230.294 14.9688C244.063 15.2267 257.635 18.2824 270.186 23.95C270.298 23.9874 270.41 24.0623 270.523 24.0997C274.789 25.8211 312.922 40.8273 338.631 40.8273H339.342C343.046 60.7731 340.876 90.8603 301.508 106.652C288.387 111.27 274.59 113.672 260.681 113.763C238.452 113.763 220.115 106.989 206.195 93.6295C203.414 90.9684 199.715 89.4807 195.866 89.4757C194.158 89.4817 192.464 89.7726 190.852 90.3364C188.232 91.265 185.923 92.9055 184.185 95.0738C182.446 97.242 181.347 99.8521 181.01 102.611L180.037 110.357L175.284 107.027C172.622 105.146 169.416 104.189 166.158 104.304C162.9 104.419 159.77 105.599 157.247 107.663C153.606 110.699 150.418 114.24 147.779 118.178C143.999 90.5235 144.561 56.3948 162.336 50.4447ZM153.804 155.787C152.691 149.108 153.288 142.255 155.539 135.868C157.79 129.482 161.622 123.769 166.677 119.264L186.81 133.446C187.655 134.224 188.735 134.697 189.879 134.794C191.525 134.794 192.61 133.334 192.61 130.677L195.866 104.444C215.662 123.455 239.874 128.731 260.681 128.731C276.463 128.67 292.119 125.911 306.972 120.573C316.428 116.953 325.208 111.766 332.942 105.23C332.98 106.203 333.055 107.176 333.055 108.187C333.015 118.188 331.656 128.141 329.013 137.787C318.984 174.311 299.637 206.456 275.949 225.916C265.294 234.745 251.878 239.553 238.041 239.5C228.129 239.384 218.357 237.15 209.379 232.948C200.401 228.747 192.426 222.674 185.987 215.138C171.354 197.736 160.405 177.545 153.804 155.787V155.787ZM168.174 268.764L169.82 267.716L171.13 266.257L176.631 260.194L216.411 293.425C216.881 294.311 217.102 295.309 217.049 296.31C216.997 297.312 216.672 298.281 216.111 299.113L215.4 299.974L214.802 300.947L200.319 324.71L163.346 271.907L168.174 268.764ZM436.189 447.828C435.557 452.234 433.39 456.275 430.07 459.239C426.749 462.204 422.489 463.901 418.04 464.031H61.9706C57.423 463.913 53.058 462.217 49.6239 459.233C46.1897 456.249 43.9001 452.164 43.1474 447.678C40.2618 418.589 40.6257 389.269 44.2326 360.26C48.4239 294.772 138.947 279.242 139.846 279.092L139.995 279.055H140.107C142.977 278.503 145.813 277.791 148.602 276.922L190.702 337.096C191.384 339.08 192.635 340.819 194.299 342.096C195.962 343.374 197.965 344.134 200.057 344.281C201.776 344.181 203.452 343.703 204.966 342.882C206.479 342.06 207.793 340.915 208.814 339.529L216.523 326.88L222.024 336.647L206.195 413.138C205.546 416.638 205.862 420.25 207.107 423.585C208.353 426.921 210.483 429.854 213.267 432.073L231.155 445.695C234.154 447.883 237.771 449.063 241.483 449.063C245.196 449.063 248.813 447.883 251.812 445.695L269.699 432.073C272.486 429.833 274.593 426.86 275.783 423.489C276.973 420.117 277.199 416.481 276.435 412.988L257.5 336.797H257.762L262.851 327.479L270.186 339.529C271.207 340.915 272.521 342.06 274.034 342.882C275.548 343.703 277.224 344.181 278.943 344.281C281.035 344.134 283.038 343.374 284.701 342.096C286.365 340.819 287.616 339.08 288.298 337.096L330.585 276.66C333.617 277.678 336.719 278.478 339.865 279.055H340.015L340.165 279.092C341.063 279.242 431.549 294.473 435.778 360.26V360.522L435.815 360.747C438.293 389.716 438.418 418.838 436.189 447.828V447.828Z" fill="black"/>
</g>
<defs>
<clipPath id="clip0_4_34">
<rect width="479" height="479" fill="white"/>
</clipPath>
</defs>
</svg>
